<svg xmlns="http://www.w3.org/2000/svg" width="179.365" height="245.182"><linearGradient id="a" gradientUnits="userSpaceOnUse" x1="89.898" y1="233.304" x2="89.898" y2="204.383"><stop offset="0" stop-color="#FDC486"/><stop offset="1" stop-color="#F9AD80"/></linearGradient><path fill="url(#a)" d="M114.811 222.659l.039.003v-18.278h-49.904v18.347c5.229 5.115 13.417 8.593 24.608 8.755 11.243-.165 20.031-3.673 25.257-8.827z"/><rect x="64.99" y="204.49" opacity=".1" fill="#010101" width="49.902" height="28.921"/><g fill="#F9AD80"><path d="M145.859 108.498c0-9.253 7.503-16.753 16.755-16.753 9.253 0 16.751 7.5 16.751 16.753 0 9.252-8.176 23.171-17.429 23.171-9.251-.001-16.077-13.919-16.077-23.171zM0 108.498c0-9.253 7.501-16.753 16.753-16.753 9.253 0 16.753 7.5 16.753 16.753 0 9.252-8.179 23.171-17.431 23.171s-16.075-13.919-16.075-23.171z"/></g><path fill="#2E303C" d="M129.554 225.236c-2.628-1.165-5.424-1.932-8.412-2.178-1.739-.144-4.423-.274-6.165-.396l-.038-.003c-5.226 5.154-14.013 8.662-25.256 8.826-11.192-.162-19.381-3.64-24.608-8.755l-.076-.071c-1.739.122-5.025.254-6.777.399-2.988.246-5.783 1.013-8.411 2.178-8.575 3.8-15.382 11.845-21.379 19.946h122.504c-6-8.101-12.808-16.146-21.382-19.946z"/><path fill="#CD6666" d="M148.104 163.339c-.34-10.458-.845-20.892-.533-31.319-26.724.32-53.449.475-80.165.234-12.051-.109-24.108-.213-36.162-.34-.065 18.46 4.591 30.079 4.446 48.538 15.912 15.196 32.04 30.126 55.897 30.126 22.026 0 38.521-16.903 53.971-30.26-.089-8.907 2.833-8.103 2.546-16.979z"/><linearGradient id="b" gradientUnits="userSpaceOnUse" x1="18.899" y1="114.201" x2="160.467" y2="114.201"><stop offset="0" stop-color="#FDC486"/><stop offset="1" stop-color="#F9AD80"/></linearGradient><path fill="url(#b)" d="M159.359 136.108c0 44.794-29.56 71.84-70.113 71.84-40.557 0-71.221-25.941-67.907-70.735l-2.209-35.65c-3.316-44.795 29.56-81.107 70.116-81.107 40.554 0 71.221 36.312 71.221 81.107l-1.108 34.545z"/><g stroke="#CD6666" stroke-linecap="round" fill="none"><path stroke-width="2.125" d="M89.451 94.864l-11.583 40.705s15.745.277 23.629 2.247"/><path stroke-width="1.7" d="M89.267 96.167l-9.38 38.048s12.487 1.319 18.794 2.896"/></g><g fill="#010101"><ellipse cx="116.363" cy="95.693" rx="6.276" ry="7.474"/><ellipse cx="63.003" cy="95.693" rx="6.278" ry="7.474"/></g><path fill="#2E303C" d="M129.554 225.236c-2.628-1.165-5.424-1.932-8.412-2.178-1.739-.144-4.423-.274-6.165-.396l-.038-.003c-5.226 5.154-14.013 8.662-25.256 8.826-11.192-.162-19.381-3.64-24.608-8.755l-.076-.071c-1.739.122-5.025.254-6.777.399-2.988.246-5.783 1.013-8.411 2.178-8.575 3.8-15.382 11.845-21.379 19.946h122.504c-6-8.101-12.808-16.146-21.382-19.946z"/><g><linearGradient id="c" gradientUnits="userSpaceOnUse" x1="61.492" y1="81.877" x2="61.492" y2="54.654"><stop offset="0" stop-color="#754D25"/><stop offset=".091" stop-color="#6E4824"/><stop offset=".489" stop-color="#55341C"/><stop offset=".806" stop-color="#462815"/><stop offset="1" stop-color="#412312"/></linearGradient><path fill="url(#c)" d="M48.141 89.117c-1.444-4.688 3.138-10.528 10.411-13.178 7.412-2.694 14.809-1.065 16.558 3.649-3.67-.233-9.468-1.189-15.067.856-5.258 1.909-9.183 6.283-11.902 8.673z"/></g><g><linearGradient id="d" gradientUnits="userSpaceOnUse" x1="117.923" y1="82.004" x2="117.923" y2="54.868"><stop offset="0" stop-color="#754D25"/><stop offset=".091" stop-color="#6E4824"/><stop offset=".489" stop-color="#55341C"/><stop offset=".806" stop-color="#462815"/><stop offset="1" stop-color="#412312"/></linearGradient><path fill="url(#d)" d="M131.145 89.371c-2.66-2.534-6.492-6.991-12.098-9.032-5.251-1.915-11.072-1.082-14.692-.999 1.908-4.521 9.176-6.052 16.452-3.403 7.401 2.695 12.022 8.702 10.338 13.434z"/></g><path opacity=".1" fill="#010101" d="M155.911 72.556c-1.159 5.274-2.579 10.287-4.237 15.022.635 2.858.985 5.795.985 8.798 0 27.713-28.195 50.177-62.977 50.177-34.78 0-62.977-22.464-62.977-50.177 0-2.995.348-5.925.98-8.775-1.912-5.456-3.52-11.269-4.764-17.437-3.204 9.651-4.616 20.25-3.793 31.374l2.209 35.65c-3.314 44.794 27.352 70.733 67.906 70.733s70.115-27.044 70.115-71.839l1.104-34.545c.003-10.213-1.608-19.978-4.551-28.981z"/><linearGradient id="e" gradientUnits="userSpaceOnUse" x1="87.082" y1="106.606" x2="87.082"><stop offset="0" stop-color="#754D25"/><stop offset=".154" stop-color="#644021"/><stop offset=".344" stop-color="#54331B"/><stop offset=".543" stop-color="#492B17"/><stop offset=".755" stop-color="#432513"/><stop offset="1" stop-color="#412312"/></linearGradient><path fill="url(#e)" d="M164.407 86.152c-.352-4.391-3.605-7.809-.784-12.487 1.678-2.781-3.329-6.859-4.098-10.182-1.133-4.909-2.392-9.789-3.53-14.696-1.038-4.477.833-8.389.613-12.835-.251-5.115-6.637-5.086-9.644-8.481-2.57-2.905-2.151-7.161-4.767-9.879-3.252-3.375-12.831-1.143-17.057-2.827-8.074-3.216-12.145-9.583-20.755-9.012-3.324-2.251-8.493-7.337-12.616-5.268-2.39 1.2-4.726 2.517-6.958 3.99-1.151.761-4.063 3.933-5.358 4.084-6.555.764-13.141 1.593-19.554 3.19-2.514.626-4.911 2.058-7.542 2.028-2.4-.026-4.994-1.519-7.337-.396-2.431 1.169-3.707 4.035-5.878 5.734-2.481 1.942-7.274 2.535-9.993 4.141-2.303 1.359-3.847 5.062-4.176 6.916-.892 5.039-5.427 9.539-6.901 12.302-2.189 4.109-4.656 12.221-2.899 15.733 3.385 6.77-3.298 13.201-4.586 20.659-1.055 6.104-1.491 12.405-.077 18.492 1.582 6.821 9.389 11.572 16.088 8.058 7.376-3.869 6.633-15.798 7.495-22.724.663-5.315.94-10.637 2.295-15.837.734-2.822 1.181-5.508 1.532-8.39.19-1.562.659-4.2 2.479-4.55 1.973-.378 4.193 2.188 5.79 3.042 1.874 1.001 4.475 1.976 6.616 2.075 3.673.173 7.369-.024 10.998-.636 3.243-.546 6.297-1.96 9.518-2.449 2-.305 3.854.214 5.84.276 3.175.099 5.659-.032 8.011 2.339 1.91 1.929 2.945 4.644 5.112 6.339 4.157 3.253 11.506-2.643 14.353-5.34 1.992-1.886 3.849-2.185 6.574-2.14 4.208.069 8.341.357 12.557.104 2.818-.169 6.206-.104 8.925.839 3.413 1.186 3.249 4.205 3.581 7.125.497 4.383 1.881 8.686 3.307 12.846 1.923 5.61 4.01 10.666 4.812 16.562.476 3.51 1.687 8.532 5.6 9.635 3.24.913 8.062-.936 10.226-3.448 2.175-2.524 2.193-6.765 2.308-9.896.059-1.705.012-3.382-.12-5.036z"/><path stroke="#CD6666" stroke-width="2.125" stroke-linecap="round" d="M115.153 165.282s-27.937-10.134-50.942.822" fill="none"/></svg>